<!DOCTYPE svg PUBLIC "-//W3C//DTD SVG 1.1//EN" "http://www.w3.org/Graphics/SVG/1.1/DTD/svg11.dtd">
<!-- Uploaded to: SVG Repo, www.svgrepo.com, Transformed by: SVG Repo Mixer Tools -->
<svg width="800px" height="800px" viewBox="-17.5 0 65 65" version="1.1" xmlns="http://www.w3.org/2000/svg" xmlns:xlink="http://www.w3.org/1999/xlink" xmlns:sketch="http://www.bohemiancoding.com/sketch/ns" fill="#ffffff" stroke="#ffffff">
<g id="SVGRepo_bgCarrier" stroke-width="0"/>
<g id="SVGRepo_tracerCarrier" stroke-linecap="round" stroke-linejoin="round"/>
<g id="SVGRepo_iconCarrier"> <title>Temperature</title> <desc>Created with Sketch.</desc> <defs> </defs> <g id="Page-1" stroke="none" stroke-width="1" fill="none" fill-rule="evenodd" sketch:type="MSPage"> <g id="Temperature" sketch:type="MSLayerGroup" transform="translate(0.000000, 2.000000)" stroke="#ffffff" stroke-width="2"> <path d="M22.1,42.7 L22.1,6.8 C22.1,2.1 19.1,-0.1 15.2,-0.1 C11.2,-0.1 8.2,2.1 8.2,6.8 L8.2,42.6 C5.8,44.6 4.1,47.8 4.1,51.2 C4.1,57.3 9.2,61.9 15.3,61.9 C21.4,61.9 26.2,57.3 26.2,51.2 C26.1,48 24.4,44.7 22.1,42.7 L22.1,42.7 Z" id="Shape" sketch:type="MSShapeGroup"> </path> <path d="M15.1,7 L15.1,41.8" id="Shape" sketch:type="MSShapeGroup"> </path> <path d="M21.4,47.9 C21.9,48.8 22.1,49.9 22.1,51 C22.1,54.8 19,58 15.1,58" id="Shape" sketch:type="MSShapeGroup"> </path> <path d="M25,9.9 L30,9.9" id="Shape" sketch:type="MSShapeGroup"> </path> <path d="M25,16.9 L28,16.9" id="Shape" sketch:type="MSShapeGroup"> </path> <path d="M25,23.9 L30,23.9" id="Shape" sketch:type="MSShapeGroup"> </path> <path d="M25,29.9 L28,29.9" id="Shape" sketch:type="MSShapeGroup"> </path> <path d="M25,36.9 L30,36.9" id="Shape" sketch:type="MSShapeGroup"> </path> <path d="M0,9.9 L5,9.9" id="Shape" sketch:type="MSShapeGroup"> </path> <path d="M2,16.9 L5,16.9" id="Shape" sketch:type="MSShapeGroup"> </path> <path d="M0,23.9 L5,23.9" id="Shape" sketch:type="MSShapeGroup"> </path> <path d="M2,29.9 L5,29.9" id="Shape" sketch:type="MSShapeGroup"> </path> <path d="M0,36.9 L5,36.9" id="Shape" sketch:type="MSShapeGroup"> </path> </g> </g> </g>
</svg>